#!OML:ASF H:\BabyWalks\Project 1\Capture day 1\Session 1\baby.ASF
:FULLY-SPECIFIED
:DEGREES
461
root 4.83294 15.7743 -0.407437 -318.272 87.9404 -334.193
lowerback 28.1854 0.609821 -0.514408
upperback 4.19752 1.21763 1.76566
thorax -10.9583 0.772123 1.82366
lowerneck -4.82901 -1.47918 4.63945
upperneck -21.9768 -2.05175 -5.07891
head -5.95387 -0.658757 -2.37541
rclavicle 5.56597e-015 4.77083e-015
rhumerus -43.6512 15.3714 -75.9466
rradius 55.1436
rwrist 0.321175
rhand -14.8351 -16.2384
rfingers 7.12502
rthumb 11.3238 -45.9127
lclavicle 5.56597e-015 4.77083e-015
lhumerus -37.4734 -12.1618 65.3294
lradius 76.3696
lwrist -8.4627
lhand -9.46267 -1.04095
lfingers 7.12502
lthumb 16.501 28.2774
rfemur -48.2591 3.35728 18.4931
rtibia 74.783
rfoot -31.4399 5.05295
rtoes -11.3332
lfemur -47.9187 3.13459 -16.2786
ltibia 72.9587
lfoot -34.4293 -13.8272
ltoes -10.9254
462
root 4.96927 15.9663 -0.414288 -317.157 87.7942 -332.52
lowerback 27.7728 0.641529 -0.446857
upperback 3.93515 1.25472 1.74838
thorax -11.0476 0.778916 1.75479
lowerneck -4.73585 -1.50227 4.66811
upperneck -21.9709 -2.1194 -5.31194
head -5.97176 -0.678948 -2.45225
rclavicle -1.70955e-014 -1.90833e-014
rhumerus -45.5295 15.6103 -75.7266
rradius 56.45
rwrist 0.726528
rhand -13.7347 -15.8206
rfingers 7.12502
rthumb 12.3849 -45.4337
lclavicle -1.70955e-014 -1.90833e-014
lhumerus -39.0024 -12.0901 64.8008
lradius 78.0747
lwrist -8.61584
lhand -9.29566 -1.18198
lfingers 7.12502
lthumb 16.6618 28.1229
rfemur -45.8776 3.39889 18.3482
rtibia 72.2972
rfoot -30.7137 5.25019
rtoes -11.1256
lfemur -45.3891 2.32325 -16.2679
ltibia 70.3352
lfoot -33.6455 -13.4359
ltoes -11.468
463
root 5.11331 16.1758 -0.419535 -315.545 87.642 -330.259
lowerback 27.3592 0.678552 -0.409071
upperback 3.68544 1.29149 1.73247
thorax -11.1206 0.78719 1.70508
lowerneck -4.59961 -1.51207 4.7247
upperneck -21.8843 -2.1849 -5.62877
head -5.97145 -0.697192 -2.55949
rclavicle 8.34896e-015 3.97569e-015
rhumerus -47.4403 15.7643 -75.4348
rradius 57.7921
rwrist 0.954478
rhand -12.6061 -15.5086
rfingers 7.12502
rthumb 13.4729 -45.0529
lclavicle 8.34896e-015 3.97569e-015
lhumerus -40.5039 -12.0552 64.2291
lradius 79.7125
lwrist -8.85875
lhand -8.94179 -1.29748
lfingers 7.12502
lthumb 17.0025 27.9784
rfemur -43.2467 3.42412 18.1709
rtibia 69.5214
rfoot -29.791 5.54135
rtoes -10.8465
lfemur -42.6256 1.45214 -16.2903
ltibia 67.4156
lfoot -32.5953 -13.1616
ltoes -12.0635
464
root 5.26499 16.4022 -0.422234 -313.287 87.4903 -327.276
lowerback 26.9163 0.720438 -0.413571
upperback 3.45265 1.32405 1.72103
thorax -11.1581 0.79581 1.68679
lowerneck -4.41466 -1.50369 4.81064
upperneck -21.7116 -2.24166 -6.03584
head -5.95192 -0.710029 -2.69953
rclavicle 1.23246e-014 -1.27222e-014
rhumerus -49.3531 15.8351 -75.0672
rradius 59.1355
rwrist 0.981971
rhand -11.4879 -15.3396
rfingers 7.12502
rthumb 14.5505 -44.8093
lclavicle 1.23246e-014 -1.27222e-014
lhumerus -41.923 -12.0743 63.6143
lradius 81.2447
lwrist -9.17049
lhand -8.39477 -1.40636
lfingers 7.12502
lthumb 17.529 27.8234
rfemur -40.3861 3.4344 17.9582
rtibia 66.4578
rfoot -28.6281 5.92046
rtoes -10.531
lfemur -39.6522 0.527233 -16.3572
ltibia 64.2024
lfoot -31.2354 -13.0106
ltoes -12.7392
465
root 5.42439 16.6446 -0.42172 -310.372 87.3424 -323.571
lowerback 26.424 0.764628 -0.459332
upperback 3.24061 1.3491 1.71008
thorax -11.1445 0.803145 1.69605
lowerneck -4.20478 -1.47919 4.94878
upperneck -21.4176 -2.29484 -6.55378
head -5.89876 -0.721543 -2.8822
rclavicle 2.38542e-015 7.15625e-015
rhumerus -51.2402 15.8367 -74.6284
rradius 60.4469
rwrist 0.791481
rhand -10.4264 -15.3227
rfingers 7.12502
rthumb 15.573 -44.7157
lclavicle 2.38542e-015 7.15625e-015
lhumerus -43.2082 -12.1671 62.9459
lradius 82.6404
lwrist -9.52126
lhand -7.66113 -1.52667
lfingers 7.12502
lthumb 18.2349 27.6386
rfemur -37.312 3.44403 17.7075
rtibia 63.1131
rfoot -27.1743 6.38597
rtoes -10.1717
lfemur -36.4925 -0.433471 -16.4762
ltibia 60.7105
lfoot -29.5131 -12.9918
ltoes -13.5266
466
root 5.59052 16.9009 -0.417527 -306.713 87.2037 -319.076
lowerback 25.8658 0.804436 -0.541727
upperback 3.04493 1.35877 1.69484
thorax -11.0756 0.805077 1.7276
lowerneck -3.97323 -1.44074 5.13567
upperneck -20.9926 -2.34203 -7.16552
head -5.80838 -0.731861 -3.10115
rclavicle 1.39149e-014 2.8625e-014
rhumerus -53.0752 15.7845 -74.1334
rradius 61.6788
rwrist 0.426866
rhand -9.51116 -15.4205
rfingers 7.12502
rthumb 16.4543 -44.7427
lclavicle 1.39149e-014 2.8625e-014
lhumerus -44.312 -12.3434 62.2127
lradius 83.8638
lwrist -9.86273
lhand -6.78725 -1.67354
lfingers 7.12502
lthumb 19.0754 27.411
rfemur -34.0608 3.46077 17.4229
rtibia 59.5001
rfoot -25.3676 6.9
rtoes -9.83649
lfemur -33.1985 -1.40368 -16.6495
ltibia 56.9687
lfoot -27.3565 -13.1154
ltoes -14.4837
467
root 5.76225 17.1687 -0.409042 -302.227 87.0789 -313.727
lowerback 25.2319 0.831827 -0.655456
upperback 2.86285 1.34409 1.67137
thorax -10.9482 0.796921 1.77687
lowerneck -3.72707 -1.39078 5.36969
upperneck -20.426 -2.38001 -7.85084
head -5.67632 -0.741215 -3.34927
rclavicle -3.97569e-016 7.95139e-016
rhumerus -54.8238 15.6853 -73.5927
rradius 62.7843
rwrist -0.0429125
rhand -8.78108 -15.5834
rfingers 7.12502
rthumb 17.1572 -44.8459
lclavicle -3.97569e-016 7.95139e-016
lhumerus -45.1938 -12.5994 61.4028
lradius 84.883
lwrist -10.1551
lhand -5.84566 -1.84539
lfingers 7.12502
lthumb 19.9807 27.1474
rfemur -30.6567 3.49899 17.1156
rtibia 55.6327
rfoot -23.1476 7.39565
rtoes -9.70421
lfemur -29.8288 -2.34367 -16.8697
ltibia 53.0177
lfoot -24.6678 -13.4112
ltoes -15.6407
468
root 5.93842 17.4485 -0.395859 -296.769 86.9708 -307.397
lowerback 24.523 0.835426 -0.795169
upperback 2.69376 1.29247 1.63862
thorax -10.7622 0.772343 1.8433
lowerneck -3.49516 -1.33188 5.63769
upperneck -19.6997 -2.40356 -8.57638
head -5.49206 -0.749358 -3.61329
rclavicle -1.11319e-014 -2.06736e-014
rhumerus -56.4395 15.5693 -73.0276
rradius 63.6987
rwrist -0.541832
rhand -8.31834 -15.7287
rfingers 7.12502
rthumb 17.6025 -44.9518
lclavicle -1.11319e-014 -2.06736e-014
lhumerus -45.818 -12.9065 60.5104
lradius 85.6606
lwrist -10.362
lhand -4.93809 -2.03605
lfingers 7.12502
lthumb 20.8529 26.8633
rfemur -27.1436 3.58104 16.7952
rtibia 51.5287
rfoot -20.4125 7.83371
rtoes -9.72045
lfemur -26.4616 -3.243 -17.1111
ltibia 48.9102
lfoot -21.2745 -13.942
ltoes -16.7744
469
root 6.11753 17.7392 -0.377966 -290.37 86.8817 -300.13
lowerback 23.7579 0.805835 -0.935499
upperback 2.53002 1.19824 1.59078
thorax -10.5347 0.727148 1.90662
lowerneck -3.31247 -1.27063 5.91894
upperneck -18.7847 -2.40985 -9.28583
head -5.2409 -0.758826 -3.871
rclavicle -8.34896e-015 -2.38542e-015
rhumerus -57.8889 15.4435 -72.4703
rradius 64.3581
rwrist -0.96989
rhand -8.18497 -15.7765
rfingers 7.12502
rthumb 17.7309 -44.9882
lclavicle -8.34896e-015 -2.38542e-015
lhumerus -46.1599 -13.2475 59.5256
lradius 86.1629
lwrist -10.4375
lhand -4.16042 -2.22603
lfingers 7.12502
lthumb 21.5999 26.5893
rfemur -23.5671 3.73052 16.4892
rtibia 47.2183
rfoot -17.0581 8.1238
rtoes -9.84843
lfemur -23.1807 -4.0898 -17.3339
ltibia 44.7242
lfoot -17.0075 -14.6679
ltoes -17.6904
470
root 6.29807 18.0399 -0.35542 -283.037 86.8031 -291.948
lowerback 22.9465 0.738088 -1.0782
upperback 2.37623 1.05602 1.53637
thorax -10.2657 0.65889 1.97778
lowerneck -3.22262 -1.2085 6.18356
upperneck -17.6725 -2.39287 -9.93949
head -4.91324 -0.768274 -4.10486
rclavicle -8.74653e-015 -1.98785e-014
rhumerus -59.1163 15.3348 -71.9349
rradius 64.7041
rwrist -1.23447
rhand -8.43561 -15.6773
rfingers 7.12502
rthumb 17.4897 -44.9105
lclavicle -8.74653e-015 -1.98785e-014
lhumerus -46.2102 -13.5647 58.4626
lradius 86.3715
lwrist -10.3372
lhand -3.57941 -2.39339
lfingers 7.12502
lthumb 22.1578 26.3568
rfemur -19.993 3.97092 16.222
rtibia 42.7726
rfoot -12.9981 8.11077
rtoes -9.94863
lfemur -20.0838 -4.87926 -17.5073
ltibia 40.5856
lfoot -11.819 -15.3695
ltoes -18.1707
471
root 6.47825 18.349 -0.328824 -274.877 86.7213 -282.971
lowerback 22.1136 0.631873 -1.21255
upperback 2.22766 0.868065 1.47599
thorax -9.97336 0.567962 2.04897
lowerneck -3.26671 -1.14838 6.41118
upperneck -16.3543 -2.35006 -10.4974
head -4.50046 -0.778708 -4.29926
rclavicle -9.14409e-015 -2.3059e-014
rhumerus -60.0883 15.2496 -71.4461
rradius 64.6865
rwrist -1.26063
rhand -9.09089 -15.4192
rfingers 7.12502
rthumb 16.8589 -44.7074
lclavicle -9.14409e-015 -2.3059e-014
lhumerus -45.9732 -13.8248 57.3368
lradius 86.2826
lwrist -10.0086
lhand -3.22183 -2.50667
lfingers 7.12502
lthumb 22.5011 26.2024
rfemur -16.5175 4.29881 16.019
rtibia 38.3278
rfoot -8.27752 7.54112
rtoes -9.68624
lfemur -17.2861 -5.61078 -17.6077
ltibia 36.6878
lfoot -5.89148 -15.7301
ltoes -17.8898
472
root 6.6549 18.6587 -0.298785 -265.99 86.6228 -273.32
lowerback 21.2611 0.488947 -1.33996
upperback 2.09465 0.637582 1.41944
thorax -9.64759 0.455894 2.12921
lowerneck -3.48362 -1.09344 6.58419
upperneck -14.8552 -2.2843 -10.9368
head -4.00534 -0.791378 -4.44578
rclavicle -6.75868e-015 -7.15625e-015
rhumerus -60.7538 15.1857 -71.0082
rradius 64.2823
rwrist -1.01161
rhand -10.1342 -15.0369
rfingers 7.12502
rthumb 15.8544 -44.4078
lclavicle -6.75868e-015 -7.15625e-015
lhumerus -45.4398 -13.9651 56.177
lradius 85.8928
lwrist -9.42048
lhand -3.07494 -2.56213
lfingers 7.12502
lthumb 22.642 26.1298
rfemur -13.2583 4.71035 15.9034
rtibia 34.0616
rfoot -3.10106 6.12824
rtoes -8.30847
lfemur -14.9121 -6.29176 -17.6158
ltibia 33.2535
lfoot 0.161018 -15.4406
ltoes -16.6979
473
root 6.8245 18.9611 -0.266471 -256.749 86.4887 -263.387
lowerback 20.4056 0.317611 -1.46105
upperback 1.97987 0.375555 1.37141
thorax -9.29528 0.327795 2.21925
lowerneck -3.87386 -1.04816 6.69921
upperneck -13.2358 -2.20512 -11.2554
head -3.44813 -0.808369 -4.54564
rclavicle 2.38542e-015 1.11319e-014
rhumerus -61.0887 15.122 -70.6217
rradius 63.4974
rwrist -0.483032
rhand -11.5126 -14.595
rfingers 7.12502
rthumb 14.5266 -44.0664
lclavicle 2.38542e-015 1.11319e-014
lhumerus -44.6316 -13.9419 55.0153
lradius 85.2387
lwrist -8.56706
lhand -3.0706 -2.54924
lfingers 7.12502
lthumb 22.6462 26.1421
rfemur -10.3259 5.20299 15.8843
rtibia 30.1801
rfoot 1.98084 3.74115
rtoes -5.88649
lfemur -13.0592 -6.94011 -17.5311
ltibia 30.4968
lfoot 5.49964 -14.5284
ltoes -15.2585
474
root 6.98531 19.2597 -0.232383 -247.55 86.306 -253.586
lowerback 19.5544 0.128832 -1.58144
upperback 1.88632 0.0955341 1.33854
thorax -8.91806 0.190244 2.32456
lowerneck -4.40437 -1.01722 6.75477
upperneck -11.5917 -2.12557 -11.4599
head -2.86445 -0.831045 -4.60332
rclavicle 3.37934e-015 3.26007e-014
rhumerus -61.076 15.0242 -70.2676
rradius 62.3609
rwrist 0.297598
rhand -13.1234 -14.1721
rfingers 7.12502
rthumb 12.9742 -43.7487
lclavicle 3.37934e-015 3.26007e-014
lhumerus -43.5716 -13.7095 53.8969
lradius 84.3547
lwrist -7.5047
lhand -3.12853 -2.45708
lfingers 7.12502
lthumb 22.5906 26.2411
rfemur -7.80554 5.79192 15.9685
rtibia 26.8815
rfoot 6.304 0.708409
rtoes -2.84863
lfemur -11.7632 -7.57724 -17.3625
ltibia 28.5425
lfoot 9.63898 -13.1434
ltoes -13.7653
